<mxfile host="app.diagrams.net" modified="2022-07-14T17:06:26.392Z" agent="5.0 (Windows)" etag="YrPEGgDSho0l1pcpZtqL" version="20.1.1" type="github">
  <diagram id="uV8AZIT9uaEN2IIDpnIh" name="Page-1">
    <mxGraphModel dx="1185" dy="651" grid="1" gridSize="10" guides="1" tooltips="1" connect="1" arrows="1" fold="1" page="1" pageScale="1" pageWidth="827" pageHeight="1169" math="0" shadow="0">
      <root>
        <mxCell id="0" />
        <mxCell id="1" parent="0" />
        <mxCell id="Nk_SOQmPOWVBdrKhtnLr-1" value="" style="shape=datastore;whiteSpace=wrap;html=1;" vertex="1" parent="1">
          <mxGeometry x="95" y="76.25" width="70" height="70" as="geometry" />
        </mxCell>
        <mxCell id="Nk_SOQmPOWVBdrKhtnLr-12" value="" style="shape=cylinder3;whiteSpace=wrap;html=1;boundedLbl=1;backgroundOutline=1;size=15;rotation=-90;" vertex="1" parent="1">
          <mxGeometry x="355" y="240" width="30" height="155" as="geometry" />
        </mxCell>
        <mxCell id="Nk_SOQmPOWVBdrKhtnLr-13" value="" style="shape=cylinder3;whiteSpace=wrap;html=1;boundedLbl=1;backgroundOutline=1;size=15;rotation=90;" vertex="1" parent="1">
          <mxGeometry x="355" y="120" width="30" height="155" as="geometry" />
        </mxCell>
        <mxCell id="Nk_SOQmPOWVBdrKhtnLr-14" value="" style="endArrow=classic;html=1;rounded=0;edgeStyle=orthogonalEdgeStyle;curved=1;entryX=0;entryY=0.25;entryDx=0;entryDy=0;" edge="1" parent="1" target="Nk_SOQmPOWVBdrKhtnLr-22">
          <mxGeometry relative="1" as="geometry">
            <mxPoint x="435" y="195" as="sourcePoint" />
            <mxPoint x="480" y="230" as="targetPoint" />
          </mxGeometry>
        </mxCell>
        <mxCell id="Nk_SOQmPOWVBdrKhtnLr-28" style="edgeStyle=orthogonalEdgeStyle;curved=1;rounded=0;orthogonalLoop=1;jettySize=auto;html=1;exitX=1;exitY=0.25;exitDx=0;exitDy=0;entryX=0.5;entryY=1;entryDx=0;entryDy=0;entryPerimeter=0;" edge="1" parent="1" source="Nk_SOQmPOWVBdrKhtnLr-16" target="Nk_SOQmPOWVBdrKhtnLr-13">
          <mxGeometry relative="1" as="geometry" />
        </mxCell>
        <mxCell id="Nk_SOQmPOWVBdrKhtnLr-16" value="" style="shape=process;whiteSpace=wrap;html=1;backgroundOutline=1;" vertex="1" parent="1">
          <mxGeometry x="70" y="230" width="120" height="60" as="geometry" />
        </mxCell>
        <mxCell id="Nk_SOQmPOWVBdrKhtnLr-17" value="Request Queue" style="text;html=1;resizable=0;autosize=1;align=center;verticalAlign=middle;points=[];fillColor=none;strokeColor=none;rounded=0;" vertex="1" parent="1">
          <mxGeometry x="310" y="146.25" width="110" height="30" as="geometry" />
        </mxCell>
        <mxCell id="Nk_SOQmPOWVBdrKhtnLr-18" value="Response Queue" style="text;html=1;resizable=0;autosize=1;align=center;verticalAlign=middle;points=[];fillColor=none;strokeColor=none;rounded=0;" vertex="1" parent="1">
          <mxGeometry x="305" y="260" width="120" height="30" as="geometry" />
        </mxCell>
        <mxCell id="Nk_SOQmPOWVBdrKhtnLr-20" value="" style="endArrow=classic;html=1;rounded=0;exitX=0.5;exitY=0;exitDx=0;exitDy=0;exitPerimeter=0;entryX=1;entryY=0.75;entryDx=0;entryDy=0;edgeStyle=orthogonalEdgeStyle;curved=1;" edge="1" parent="1" source="Nk_SOQmPOWVBdrKhtnLr-12" target="Nk_SOQmPOWVBdrKhtnLr-16">
          <mxGeometry relative="1" as="geometry">
            <mxPoint x="240" y="357.08" as="sourcePoint" />
            <mxPoint x="180" y="357.08" as="targetPoint" />
          </mxGeometry>
        </mxCell>
        <mxCell id="Nk_SOQmPOWVBdrKhtnLr-27" style="edgeStyle=orthogonalEdgeStyle;curved=1;rounded=0;orthogonalLoop=1;jettySize=auto;html=1;entryX=0.5;entryY=1;entryDx=0;entryDy=0;entryPerimeter=0;exitX=0;exitY=0.5;exitDx=0;exitDy=0;" edge="1" parent="1" source="Nk_SOQmPOWVBdrKhtnLr-22" target="Nk_SOQmPOWVBdrKhtnLr-12">
          <mxGeometry relative="1" as="geometry">
            <mxPoint x="520" y="260" as="sourcePoint" />
          </mxGeometry>
        </mxCell>
        <mxCell id="Nk_SOQmPOWVBdrKhtnLr-30" style="edgeStyle=orthogonalEdgeStyle;curved=1;rounded=0;orthogonalLoop=1;jettySize=auto;html=1;exitX=0;exitY=0.75;exitDx=0;exitDy=0;entryX=0.5;entryY=1;entryDx=0;entryDy=0;entryPerimeter=0;" edge="1" parent="1" source="Nk_SOQmPOWVBdrKhtnLr-22" target="Nk_SOQmPOWVBdrKhtnLr-24">
          <mxGeometry relative="1" as="geometry" />
        </mxCell>
        <mxCell id="Nk_SOQmPOWVBdrKhtnLr-22" value="" style="shape=process;whiteSpace=wrap;html=1;backgroundOutline=1;" vertex="1" parent="1">
          <mxGeometry x="550" y="230" width="120" height="60" as="geometry" />
        </mxCell>
        <mxCell id="Nk_SOQmPOWVBdrKhtnLr-23" value="Notification Processor" style="text;html=1;resizable=0;autosize=1;align=center;verticalAlign=middle;points=[];fillColor=none;strokeColor=none;rounded=0;" vertex="1" parent="1">
          <mxGeometry x="540" y="190" width="140" height="30" as="geometry" />
        </mxCell>
        <mxCell id="Nk_SOQmPOWVBdrKhtnLr-29" style="edgeStyle=orthogonalEdgeStyle;curved=1;rounded=0;orthogonalLoop=1;jettySize=auto;html=1;exitX=0.5;exitY=0;exitDx=0;exitDy=0;exitPerimeter=0;entryX=1;entryY=0.5;entryDx=0;entryDy=0;entryPerimeter=0;" edge="1" parent="1" source="Nk_SOQmPOWVBdrKhtnLr-24" target="Nk_SOQmPOWVBdrKhtnLr-32">
          <mxGeometry relative="1" as="geometry">
            <mxPoint x="280" y="260" as="targetPoint" />
          </mxGeometry>
        </mxCell>
        <mxCell id="Nk_SOQmPOWVBdrKhtnLr-24" value="" style="shape=cylinder3;whiteSpace=wrap;html=1;boundedLbl=1;backgroundOutline=1;size=15;rotation=-90;" vertex="1" parent="1">
          <mxGeometry x="380" y="420" width="30" height="150" as="geometry" />
        </mxCell>
        <mxCell id="Nk_SOQmPOWVBdrKhtnLr-25" value="Error Queue" style="text;html=1;resizable=0;autosize=1;align=center;verticalAlign=middle;points=[];fillColor=none;strokeColor=none;rounded=0;" vertex="1" parent="1">
          <mxGeometry x="320" y="365" width="90" height="30" as="geometry" />
        </mxCell>
        <mxCell id="Nk_SOQmPOWVBdrKhtnLr-31" value="Notification Scheduler" style="text;html=1;resizable=0;autosize=1;align=center;verticalAlign=middle;points=[];fillColor=none;strokeColor=none;rounded=0;" vertex="1" parent="1">
          <mxGeometry x="60" y="190" width="140" height="30" as="geometry" />
        </mxCell>
        <mxCell id="Nk_SOQmPOWVBdrKhtnLr-33" style="edgeStyle=orthogonalEdgeStyle;curved=1;rounded=0;orthogonalLoop=1;jettySize=auto;html=1;exitX=0.993;exitY=0.372;exitDx=0;exitDy=0;entryX=0.5;entryY=1;entryDx=0;entryDy=0;entryPerimeter=0;exitPerimeter=0;" edge="1" parent="1" source="Nk_SOQmPOWVBdrKhtnLr-32" target="Nk_SOQmPOWVBdrKhtnLr-12">
          <mxGeometry relative="1" as="geometry" />
        </mxCell>
        <mxCell id="Nk_SOQmPOWVBdrKhtnLr-32" value="" style="shape=process;whiteSpace=wrap;html=1;backgroundOutline=1;size=0.08333333333333333;" vertex="1" parent="1">
          <mxGeometry x="160" y="415" width="120" height="60" as="geometry" />
        </mxCell>
        <mxCell id="Nk_SOQmPOWVBdrKhtnLr-34" value="Error Scheduler" style="text;html=1;resizable=0;autosize=1;align=center;verticalAlign=middle;points=[];fillColor=none;strokeColor=none;rounded=0;" vertex="1" parent="1">
          <mxGeometry x="160" y="480" width="110" height="30" as="geometry" />
        </mxCell>
        <mxCell id="Nk_SOQmPOWVBdrKhtnLr-44" style="edgeStyle=orthogonalEdgeStyle;curved=1;rounded=0;orthogonalLoop=1;jettySize=auto;html=1;exitX=0.5;exitY=1;exitDx=0;exitDy=0;entryX=0.5;entryY=0;entryDx=0;entryDy=0;" edge="1" parent="1" source="Nk_SOQmPOWVBdrKhtnLr-22" target="Nk_SOQmPOWVBdrKhtnLr-38">
          <mxGeometry relative="1" as="geometry" />
        </mxCell>
        <mxCell id="Nk_SOQmPOWVBdrKhtnLr-36" value="" style="shape=image;html=1;verticalAlign=top;verticalLabelPosition=bottom;labelBackgroundColor=#ffffff;imageAspect=0;aspect=fixed;image=https://cdn4.iconfinder.com/data/icons/ionicons/512/icon-social-apple-outline-128.png" vertex="1" parent="1">
          <mxGeometry x="610" y="395" width="58" height="58" as="geometry" />
        </mxCell>
        <mxCell id="Nk_SOQmPOWVBdrKhtnLr-37" value="" style="verticalLabelPosition=bottom;verticalAlign=top;html=1;shadow=0;dashed=0;strokeWidth=1;shape=mxgraph.android.phone2;strokeColor=#c0c0c0;" vertex="1" parent="1">
          <mxGeometry x="565" y="530" width="30" height="55" as="geometry" />
        </mxCell>
        <mxCell id="Nk_SOQmPOWVBdrKhtnLr-43" style="edgeStyle=orthogonalEdgeStyle;curved=1;rounded=0;orthogonalLoop=1;jettySize=auto;html=1;exitX=0.5;exitY=1;exitDx=0;exitDy=0;entryX=0.5;entryY=0;entryDx=0;entryDy=0;" edge="1" parent="1" source="Nk_SOQmPOWVBdrKhtnLr-22" target="Nk_SOQmPOWVBdrKhtnLr-36">
          <mxGeometry relative="1" as="geometry" />
        </mxCell>
        <mxCell id="Nk_SOQmPOWVBdrKhtnLr-38" value="" style="shape=image;html=1;verticalAlign=bottom;verticalLabelPosition=top;labelBackgroundColor=#ffffff;imageAspect=0;aspect=fixed;image=https://cdn4.iconfinder.com/data/icons/ionicons/512/icon-social-android-outline-128.png;labelPosition=left;align=right;container=0;" vertex="1" parent="1">
          <mxGeometry x="550" y="395" width="60" height="60" as="geometry">
            <mxRectangle x="560" y="357" width="50" height="40" as="alternateBounds" />
          </mxGeometry>
        </mxCell>
        <mxCell id="Nk_SOQmPOWVBdrKhtnLr-39" value="" style="verticalLabelPosition=bottom;verticalAlign=top;html=1;shadow=0;dashed=0;strokeWidth=1;shape=mxgraph.android.phone2;strokeColor=#c0c0c0;" vertex="1" parent="1">
          <mxGeometry x="630" y="530" width="30" height="55" as="geometry" />
        </mxCell>
        <mxCell id="Nk_SOQmPOWVBdrKhtnLr-45" value="" style="endArrow=classic;html=1;rounded=0;curved=1;exitX=0.5;exitY=1;exitDx=0;exitDy=0;entryX=0.422;entryY=-0.018;entryDx=0;entryDy=0;entryPerimeter=0;" edge="1" parent="1" source="Nk_SOQmPOWVBdrKhtnLr-38" target="Nk_SOQmPOWVBdrKhtnLr-37">
          <mxGeometry relative="1" as="geometry">
            <mxPoint x="536" y="530" as="sourcePoint" />
            <mxPoint x="636" y="530" as="targetPoint" />
          </mxGeometry>
        </mxCell>
        <mxCell id="Nk_SOQmPOWVBdrKhtnLr-46" value="" style="shape=message;html=1;outlineConnect=0;" vertex="1" parent="Nk_SOQmPOWVBdrKhtnLr-45">
          <mxGeometry width="20" height="14" relative="1" as="geometry">
            <mxPoint x="-10" y="-7" as="offset" />
          </mxGeometry>
        </mxCell>
        <mxCell id="Nk_SOQmPOWVBdrKhtnLr-47" value="" style="endArrow=classic;html=1;rounded=0;curved=1;exitX=0.5;exitY=1;exitDx=0;exitDy=0;entryX=0.367;entryY=-0.048;entryDx=0;entryDy=0;entryPerimeter=0;" edge="1" parent="1" source="Nk_SOQmPOWVBdrKhtnLr-36" target="Nk_SOQmPOWVBdrKhtnLr-39">
          <mxGeometry relative="1" as="geometry">
            <mxPoint x="670" y="480" as="sourcePoint" />
            <mxPoint x="770" y="480" as="targetPoint" />
          </mxGeometry>
        </mxCell>
        <mxCell id="Nk_SOQmPOWVBdrKhtnLr-48" value="" style="shape=message;html=1;outlineConnect=0;" vertex="1" parent="Nk_SOQmPOWVBdrKhtnLr-47">
          <mxGeometry width="20" height="14" relative="1" as="geometry">
            <mxPoint x="-10" y="-7" as="offset" />
          </mxGeometry>
        </mxCell>
        <mxCell id="Nk_SOQmPOWVBdrKhtnLr-49" value="" style="endArrow=classic;html=1;rounded=0;curved=1;" edge="1" parent="1">
          <mxGeometry width="50" height="50" relative="1" as="geometry">
            <mxPoint x="320" y="380" as="sourcePoint" />
            <mxPoint x="370" y="330" as="targetPoint" />
          </mxGeometry>
        </mxCell>
        <mxCell id="Nk_SOQmPOWVBdrKhtnLr-50" value="" style="endArrow=classic;html=1;rounded=0;exitX=0.5;exitY=0;exitDx=0;exitDy=0;edgeStyle=orthogonalEdgeStyle;curved=1;entryX=0.855;entryY=1;entryDx=0;entryDy=-4.35;entryPerimeter=0;" edge="1" parent="1" source="Nk_SOQmPOWVBdrKhtnLr-32" target="Nk_SOQmPOWVBdrKhtnLr-13">
          <mxGeometry width="50" height="50" relative="1" as="geometry">
            <mxPoint x="170" y="360" as="sourcePoint" />
            <mxPoint x="241" y="220" as="targetPoint" />
          </mxGeometry>
        </mxCell>
        <mxCell id="Nk_SOQmPOWVBdrKhtnLr-51" value="" style="shape=flexArrow;endArrow=classic;html=1;rounded=0;curved=1;entryX=1;entryY=0.5;entryDx=0;entryDy=0;" edge="1" parent="1" target="Nk_SOQmPOWVBdrKhtnLr-1">
          <mxGeometry width="50" height="50" relative="1" as="geometry">
            <mxPoint x="250" y="111" as="sourcePoint" />
            <mxPoint x="260" y="70" as="targetPoint" />
          </mxGeometry>
        </mxCell>
        <mxCell id="Nk_SOQmPOWVBdrKhtnLr-52" value="Actor" style="shape=umlActor;verticalLabelPosition=bottom;verticalAlign=top;html=1;outlineConnect=0;" vertex="1" parent="1">
          <mxGeometry x="250" y="76" width="30" height="60" as="geometry" />
        </mxCell>
        <mxCell id="Nk_SOQmPOWVBdrKhtnLr-53" value="Send" style="text;html=1;resizable=0;autosize=1;align=center;verticalAlign=middle;points=[];fillColor=none;strokeColor=none;rounded=0;" vertex="1" parent="1">
          <mxGeometry x="185" y="55" width="50" height="30" as="geometry" />
        </mxCell>
        <mxCell id="Nk_SOQmPOWVBdrKhtnLr-54" value="" style="endArrow=classic;startArrow=classic;html=1;rounded=0;curved=1;entryX=0.5;entryY=1;entryDx=0;entryDy=0;exitX=0.5;exitY=0;exitDx=0;exitDy=0;" edge="1" parent="1" source="Nk_SOQmPOWVBdrKhtnLr-16" target="Nk_SOQmPOWVBdrKhtnLr-1">
          <mxGeometry width="50" height="50" relative="1" as="geometry">
            <mxPoint x="120" y="210" as="sourcePoint" />
            <mxPoint x="170" y="160" as="targetPoint" />
          </mxGeometry>
        </mxCell>
      </root>
    </mxGraphModel>
  </diagram>
</mxfile>
